<svg width="262" height="35" viewBox="0 0 262 35" fill="none" xmlns="http://www.w3.org/2000/svg">
<path d="M6.29883 20.4854V28H1.9043V6.67188H10.2246C11.8262 6.67188 13.2324 6.96484 14.4434 7.55078C15.6641 8.13672 16.6016 8.97168 17.2559 10.0557C17.9102 11.1299 18.2373 12.3555 18.2373 13.7324C18.2373 15.8223 17.5195 17.4727 16.084 18.6836C14.6582 19.8848 12.6807 20.4854 10.1514 20.4854H6.29883ZM6.29883 16.9258H10.2246C11.3867 16.9258 12.2705 16.6523 12.876 16.1055C13.4912 15.5586 13.7988 14.7773 13.7988 13.7617C13.7988 12.7168 13.4912 11.8721 12.876 11.2275C12.2607 10.583 11.4111 10.251 10.3271 10.2314H6.29883V16.9258ZM28.0811 28.293C25.7568 28.293 23.8623 27.5801 22.3975 26.1543C20.9424 24.7285 20.2148 22.8291 20.2148 20.4561V20.0459C20.2148 18.4541 20.5225 17.0332 21.1377 15.7832C21.7529 14.5234 22.6221 13.5566 23.7451 12.8828C24.8779 12.1992 26.167 11.8574 27.6123 11.8574C29.7803 11.8574 31.4844 12.541 32.7246 13.9082C33.9746 15.2754 34.5996 17.2139 34.5996 19.7236V21.4521H24.5068C24.6436 22.4873 25.0537 23.3174 25.7373 23.9424C26.4307 24.5674 27.3047 24.8799 28.3594 24.8799C29.9902 24.8799 31.2646 24.2891 32.1826 23.1074L34.2627 25.4365C33.6279 26.335 32.7686 27.0381 31.6846 27.5459C30.6006 28.0439 29.3994 28.293 28.0811 28.293ZM27.5977 15.2852C26.7578 15.2852 26.0742 15.5684 25.5469 16.1348C25.0293 16.7012 24.6973 17.5117 24.5508 18.5664H30.4395V18.2295C30.4199 17.292 30.166 16.5693 29.6777 16.0615C29.1895 15.5439 28.4961 15.2852 27.5977 15.2852ZM36.3574 19.9287C36.3574 17.4385 36.9092 15.4707 38.0127 14.0254C39.126 12.5801 40.6494 11.8574 42.583 11.8574C44.2822 11.8574 45.6348 12.5068 46.6406 13.8057L46.9189 12.1504H50.6396V34.0938H46.3916V26.6377C45.415 27.7412 44.1357 28.293 42.5537 28.293C40.6689 28.293 39.165 27.5605 38.042 26.0957C36.9189 24.6309 36.3574 22.5752 36.3574 19.9287ZM40.5908 20.2363C40.5908 21.75 40.8545 22.9023 41.3818 23.6934C41.9189 24.4844 42.6709 24.8799 43.6377 24.8799C44.9365 24.8799 45.8545 24.3623 46.3916 23.3271V16.7793C45.8643 15.7832 44.9561 15.2852 43.667 15.2852C42.6904 15.2852 41.9336 15.6807 41.3965 16.4717C40.8594 17.2627 40.5908 18.5176 40.5908 20.2363ZM63.4717 26.3887C62.4268 27.6582 60.9814 28.293 59.1357 28.293C57.4365 28.293 56.1377 27.8047 55.2393 26.8281C54.3506 25.8516 53.8965 24.4209 53.877 22.5361V12.1504H58.1104V22.3896C58.1104 24.04 58.8623 24.8652 60.3662 24.8652C61.8018 24.8652 62.7881 24.3672 63.3252 23.3711V12.1504H67.5732V28H63.5889L63.4717 26.3887ZM78.0615 28.293C75.7373 28.293 73.8428 27.5801 72.3779 26.1543C70.9229 24.7285 70.1953 22.8291 70.1953 20.4561V20.0459C70.1953 18.4541 70.5029 17.0332 71.1182 15.7832C71.7334 14.5234 72.6025 13.5566 73.7256 12.8828C74.8584 12.1992 76.1475 11.8574 77.5928 11.8574C79.7607 11.8574 81.4648 12.541 82.7051 13.9082C83.9551 15.2754 84.5801 17.2139 84.5801 19.7236V21.4521H74.4873C74.624 22.4873 75.0342 23.3174 75.7178 23.9424C76.4111 24.5674 77.2852 24.8799 78.3398 24.8799C79.9707 24.8799 81.2451 24.2891 82.1631 23.1074L84.2432 25.4365C83.6084 26.335 82.749 27.0381 81.665 27.5459C80.5811 28.0439 79.3799 28.293 78.0615 28.293ZM77.5781 15.2852C76.7383 15.2852 76.0547 15.5684 75.5273 16.1348C75.0098 16.7012 74.6777 17.5117 74.5312 18.5664H80.4199V18.2295C80.4004 17.292 80.1465 16.5693 79.6582 16.0615C79.1699 15.5439 78.4766 15.2852 77.5781 15.2852ZM90.8936 12.1504L91.0254 13.9814C92.1582 12.5654 93.6768 11.8574 95.5811 11.8574C97.2607 11.8574 98.5107 12.3506 99.3311 13.3369C100.151 14.3232 100.571 15.7979 100.591 17.7607V28H96.3574V17.8633C96.3574 16.9648 96.1621 16.3154 95.7715 15.915C95.3809 15.5049 94.7314 15.2998 93.8232 15.2998C92.6318 15.2998 91.7383 15.8076 91.1426 16.8232V28H86.9092V12.1504H90.8936ZM103.154 19.9287C103.154 18.3564 103.457 16.9551 104.062 15.7246C104.668 14.4941 105.537 13.542 106.67 12.8682C107.812 12.1943 109.136 11.8574 110.64 11.8574C112.778 11.8574 114.521 12.5117 115.869 13.8203C117.227 15.1289 117.983 16.9062 118.14 19.1523L118.169 20.2363C118.169 22.668 117.49 24.6211 116.133 26.0957C114.775 27.5605 112.954 28.293 110.669 28.293C108.384 28.293 106.558 27.5605 105.19 26.0957C103.833 24.6309 103.154 22.6387 103.154 20.1191V19.9287ZM107.388 20.2363C107.388 21.7402 107.671 22.8926 108.237 23.6934C108.804 24.4844 109.614 24.8799 110.669 24.8799C111.694 24.8799 112.495 24.4893 113.071 23.708C113.647 22.917 113.936 21.6572 113.936 19.9287C113.936 18.4541 113.647 17.3115 113.071 16.501C112.495 15.6904 111.685 15.2852 110.64 15.2852C109.604 15.2852 108.804 15.6904 108.237 16.501C107.671 17.3018 107.388 18.5469 107.388 20.2363ZM129.36 23.6201C129.36 23.1025 129.102 22.6973 128.584 22.4043C128.076 22.1016 127.256 21.833 126.123 21.5986C122.354 20.8076 120.469 19.2061 120.469 16.7939C120.469 15.3877 121.05 14.2158 122.212 13.2783C123.384 12.3311 124.912 11.8574 126.797 11.8574C128.809 11.8574 130.415 12.3311 131.616 13.2783C132.827 14.2256 133.433 15.4561 133.433 16.9697H129.199C129.199 16.3643 129.004 15.8662 128.613 15.4756C128.223 15.0752 127.612 14.875 126.782 14.875C126.069 14.875 125.518 15.0361 125.127 15.3584C124.736 15.6807 124.541 16.0908 124.541 16.5889C124.541 17.0576 124.761 17.4385 125.2 17.7314C125.649 18.0146 126.401 18.2637 127.456 18.4785C128.511 18.6836 129.399 18.918 130.122 19.1816C132.358 20.002 133.477 21.4229 133.477 23.4443C133.477 24.8896 132.856 26.0615 131.616 26.96C130.376 27.8486 128.774 28.293 126.812 28.293C125.483 28.293 124.302 28.0586 123.267 27.5898C122.241 27.1113 121.436 26.4619 120.85 25.6416C120.264 24.8115 119.971 23.918 119.971 22.9609H123.984C124.023 23.7129 124.302 24.2891 124.819 24.6895C125.337 25.0898 126.03 25.29 126.899 25.29C127.71 25.29 128.32 25.1387 128.73 24.8359C129.15 24.5234 129.36 24.1182 129.36 23.6201Z" fill="black"/>
<path d="M152.647 20.8955C152.481 23.1904 151.632 24.9971 150.099 26.3154C148.575 27.6338 146.563 28.293 144.063 28.293C141.329 28.293 139.176 27.375 137.604 25.5391C136.041 23.6934 135.26 21.1641 135.26 17.9512V16.6475C135.26 14.5967 135.621 12.79 136.344 11.2275C137.066 9.66504 138.097 8.46875 139.435 7.63867C140.782 6.79883 142.345 6.37891 144.122 6.37891C146.583 6.37891 148.565 7.03809 150.069 8.35645C151.573 9.6748 152.442 11.5254 152.677 13.9082H148.282C148.175 12.5312 147.789 11.5352 147.125 10.9199C146.471 10.2949 145.47 9.98242 144.122 9.98242C142.657 9.98242 141.559 10.5098 140.826 11.5645C140.104 12.6094 139.732 14.2354 139.713 16.4424V18.0537C139.713 20.3584 140.06 22.043 140.753 23.1074C141.456 24.1719 142.56 24.7041 144.063 24.7041C145.421 24.7041 146.432 24.3965 147.096 23.7812C147.77 23.1562 148.155 22.1943 148.253 20.8955H152.647ZM164.747 26.3887C163.702 27.6582 162.257 28.293 160.411 28.293C158.712 28.293 157.413 27.8047 156.515 26.8281C155.626 25.8516 155.172 24.4209 155.152 22.5361V12.1504H159.386V22.3896C159.386 24.04 160.138 24.8652 161.642 24.8652C163.077 24.8652 164.063 24.3672 164.601 23.3711V12.1504H168.849V28H164.864L164.747 26.3887ZM176.51 28H172.262V12.1504H176.51V28ZM172.013 8.04883C172.013 7.41406 172.223 6.8916 172.643 6.48145C173.072 6.07129 173.653 5.86621 174.386 5.86621C175.108 5.86621 175.685 6.07129 176.114 6.48145C176.544 6.8916 176.759 7.41406 176.759 8.04883C176.759 8.69336 176.539 9.2207 176.1 9.63086C175.67 10.041 175.099 10.2461 174.386 10.2461C173.673 10.2461 173.097 10.041 172.657 9.63086C172.228 9.2207 172.013 8.69336 172.013 8.04883ZM179.352 19.958C179.352 17.4873 179.903 15.5195 181.007 14.0547C182.12 12.5898 183.639 11.8574 185.562 11.8574C187.105 11.8574 188.38 12.4336 189.386 13.5859V5.5H193.634V28H189.811L189.605 26.3154C188.551 27.6338 187.193 28.293 185.533 28.293C183.668 28.293 182.169 27.5605 181.036 26.0957C179.913 24.6211 179.352 22.5752 179.352 19.958ZM183.585 20.2656C183.585 21.75 183.844 22.8877 184.361 23.6787C184.879 24.4697 185.631 24.8652 186.617 24.8652C187.926 24.8652 188.849 24.3135 189.386 23.21V16.9551C188.858 15.8516 187.945 15.2998 186.646 15.2998C184.605 15.2998 183.585 16.9551 183.585 20.2656ZM206.1 28C205.904 27.6191 205.763 27.1455 205.675 26.5791C204.649 27.7217 203.316 28.293 201.676 28.293C200.123 28.293 198.834 27.8438 197.809 26.9453C196.793 26.0469 196.285 24.9141 196.285 23.5469C196.285 21.8672 196.905 20.5781 198.146 19.6797C199.396 18.7812 201.197 18.3271 203.551 18.3174H205.499V17.4092C205.499 16.6768 205.309 16.0908 204.928 15.6514C204.557 15.2119 203.966 14.9922 203.155 14.9922C202.442 14.9922 201.881 15.1631 201.471 15.5049C201.07 15.8467 200.87 16.3154 200.87 16.9111H196.637C196.637 15.9932 196.92 15.1436 197.486 14.3623C198.053 13.5811 198.854 12.9707 199.889 12.5312C200.924 12.082 202.086 11.8574 203.375 11.8574C205.328 11.8574 206.876 12.3506 208.019 13.3369C209.171 14.3135 209.747 15.6904 209.747 17.4678V24.3379C209.757 25.8418 209.967 26.9795 210.377 27.751V28H206.1ZM202.599 25.0557C203.224 25.0557 203.8 24.9189 204.327 24.6455C204.854 24.3623 205.245 23.9863 205.499 23.5176V20.793H203.917C201.798 20.793 200.67 21.5254 200.533 22.9902L200.519 23.2393C200.519 23.7666 200.704 24.2012 201.075 24.543C201.446 24.8848 201.954 25.0557 202.599 25.0557ZM212.34 19.958C212.34 17.4873 212.892 15.5195 213.995 14.0547C215.108 12.5898 216.627 11.8574 218.551 11.8574C220.094 11.8574 221.368 12.4336 222.374 13.5859V5.5H226.622V28H222.799L222.594 26.3154C221.539 27.6338 220.182 28.293 218.521 28.293C216.656 28.293 215.157 27.5605 214.024 26.0957C212.901 24.6211 212.34 22.5752 212.34 19.958ZM216.573 20.2656C216.573 21.75 216.832 22.8877 217.35 23.6787C217.867 24.4697 218.619 24.8652 219.605 24.8652C220.914 24.8652 221.837 24.3135 222.374 23.21V16.9551C221.847 15.8516 220.934 15.2998 219.635 15.2998C217.594 15.2998 216.573 16.9551 216.573 20.2656ZM229.244 19.9287C229.244 18.3564 229.547 16.9551 230.152 15.7246C230.758 14.4941 231.627 13.542 232.76 12.8682C233.902 12.1943 235.226 11.8574 236.729 11.8574C238.868 11.8574 240.611 12.5117 241.959 13.8203C243.316 15.1289 244.073 16.9062 244.229 19.1523L244.259 20.2363C244.259 22.668 243.58 24.6211 242.223 26.0957C240.865 27.5605 239.044 28.293 236.759 28.293C234.474 28.293 232.647 27.5605 231.28 26.0957C229.923 24.6309 229.244 22.6387 229.244 20.1191V19.9287ZM233.478 20.2363C233.478 21.7402 233.761 22.8926 234.327 23.6934C234.894 24.4844 235.704 24.8799 236.759 24.8799C237.784 24.8799 238.585 24.4893 239.161 23.708C239.737 22.917 240.025 21.6572 240.025 19.9287C240.025 18.4541 239.737 17.3115 239.161 16.501C238.585 15.6904 237.774 15.2852 236.729 15.2852C235.694 15.2852 234.894 15.6904 234.327 16.501C233.761 17.3018 233.478 18.5469 233.478 20.2363ZM255.45 23.6201C255.45 23.1025 255.191 22.6973 254.674 22.4043C254.166 22.1016 253.346 21.833 252.213 21.5986C248.443 20.8076 246.559 19.2061 246.559 16.7939C246.559 15.3877 247.14 14.2158 248.302 13.2783C249.474 12.3311 251.002 11.8574 252.887 11.8574C254.898 11.8574 256.505 12.3311 257.706 13.2783C258.917 14.2256 259.522 15.4561 259.522 16.9697H255.289C255.289 16.3643 255.094 15.8662 254.703 15.4756C254.312 15.0752 253.702 14.875 252.872 14.875C252.159 14.875 251.607 15.0361 251.217 15.3584C250.826 15.6807 250.631 16.0908 250.631 16.5889C250.631 17.0576 250.851 17.4385 251.29 17.7314C251.739 18.0146 252.491 18.2637 253.546 18.4785C254.601 18.6836 255.489 18.918 256.212 19.1816C258.448 20.002 259.566 21.4229 259.566 23.4443C259.566 24.8896 258.946 26.0615 257.706 26.96C256.466 27.8486 254.864 28.293 252.901 28.293C251.573 28.293 250.392 28.0586 249.356 27.5898C248.331 27.1113 247.525 26.4619 246.939 25.6416C246.354 24.8115 246.061 23.918 246.061 22.9609H250.074C250.113 23.7129 250.392 24.2891 250.909 24.6895C251.427 25.0898 252.12 25.29 252.989 25.29C253.8 25.29 254.41 25.1387 254.82 24.8359C255.24 24.5234 255.45 24.1182 255.45 23.6201Z" fill="#FF002E"/>
</svg>
