<svg width="582" height="405" viewBox="0 0 582 405" fill="none" xmlns="http://www.w3.org/2000/svg">
<path d="M486.282 62.2748L441.385 62.7121C439.275 52.3259 432.185 25.074 438.57 17.6408C438.861 14.8432 440.22 12.2655 442.365 10.4444C444.509 8.6234 447.273 7.69928 450.082 7.86445C457.041 -3.02531 468.631 -1.39029 476.465 5.41085C484.349 8.13053 487.322 12.9622 486.282 19.519C492.121 24.6285 493.198 30.8449 490.577 37.921L486.282 62.2748Z" fill="#2F2E41"/>
<path d="M481.96 89.9249L449.569 85.4411L443.09 75.9753C452.014 70.0574 455.172 61.7916 451.064 50.5672L473.489 50.069C472.438 60.0645 475.744 67.8038 484.95 72.4879L481.96 89.9249Z" fill="#FFB9B9"/>
<path d="M441.91 382.01L440.672 398.938C440.616 399.704 440.724 400.474 440.99 401.195C441.255 401.916 441.672 402.571 442.212 403.118C442.752 403.665 443.403 404.089 444.121 404.364C444.838 404.639 445.606 404.757 446.373 404.71L455.071 404.184C455.474 404.159 455.866 404.046 456.221 403.853C456.575 403.66 456.883 403.391 457.121 403.065C457.36 402.74 457.524 402.366 457.602 401.969C457.68 401.573 457.669 401.165 457.571 400.774L452.744 381.469L441.91 382.01Z" fill="#E6E6E6"/>
<path d="M470.067 381.469L465.239 400.774C465.141 401.165 465.131 401.573 465.209 401.969C465.286 402.366 465.451 402.74 465.689 403.065C465.928 403.391 466.235 403.66 466.59 403.853C466.944 404.046 467.337 404.159 467.74 404.184L476.437 404.71C477.204 404.757 477.972 404.639 478.69 404.364C479.408 404.089 480.058 403.665 480.598 403.118C481.138 402.571 481.555 401.915 481.821 401.195C482.087 400.474 482.195 399.704 482.139 398.938L480.9 382.01L470.067 381.469Z" fill="#E6E6E6"/>
<path d="M481.462 384.36L469.725 383.183L458.041 258.316L453.625 382.781L442.093 382.368L422.659 209.991H496.91L481.462 384.36Z" fill="#FF002E"/>
<path d="M463.522 58.5384C475.907 58.5384 485.947 48.5011 485.947 36.1194C485.947 23.7378 475.907 13.7005 463.522 13.7005C451.137 13.7005 441.097 23.7378 441.097 36.1194C441.097 48.5011 451.137 58.5384 463.522 58.5384Z" fill="#FFB9B9"/>
<path d="M507.874 213.976L417.177 214.973C430.637 163.746 438.688 116.162 424.652 83.4483L447.077 72.4879C457.89 83.763 469.932 82.6006 482.957 71.4915L504.385 76.9717C500.715 119.87 502.36 165.815 507.874 213.976Z" fill="#FF002E"/>
<path d="M392.26 161.167L448.572 183.586L461.162 187.288C461.725 187.454 462.316 187.504 462.899 187.435C463.482 187.367 464.045 187.181 464.554 186.89C465.064 186.598 465.509 186.207 465.863 185.739C466.218 185.271 466.474 184.736 466.616 184.167C466.866 183.169 466.754 182.114 466.3 181.191C465.846 180.267 465.079 179.535 464.136 179.122L451.064 175.117L411.695 152.2L419.918 130.528L402.725 121.311L392.26 161.167Z" fill="#FFB9B9"/>
<path d="M392.758 120.315C403.472 124.494 411.994 131.625 418.672 141.239L439.602 110.849L424.652 83.4483L392.758 120.315Z" fill="#FF002E"/>
<path d="M488.796 32.486C479.695 30.1415 470.746 29.8196 462.047 32.7934C456.506 35.4764 449.852 35.2292 442.451 33.0186V10.6512L482.404 11.7163L488.796 32.486Z" fill="#2F2E41"/>
<path d="M448.385 135.046C446.624 135.048 444.936 135.748 443.691 136.993C442.446 138.238 441.745 139.926 441.743 141.686L444.365 196.55C444.367 198.31 445.067 199.998 446.312 201.243C447.557 202.488 449.246 203.188 451.007 203.19H480.98C482.741 203.188 484.429 202.488 485.674 201.243C486.919 199.998 487.62 198.31 487.622 196.55L490.243 141.686C490.241 139.926 489.541 138.238 488.296 136.993C487.051 135.748 485.362 135.048 483.601 135.046H448.385Z" fill="#3F3D56"/>
<path d="M533.428 157.023L484.345 176.562L480.641 178.036C480.523 178.082 480.406 178.121 480.281 178.16L467.874 181.81C466.288 182.275 464.093 180.139 462.808 178.665C462.172 177.954 461.812 177.04 461.792 176.086C461.773 175.133 462.096 174.204 462.703 173.469C462.874 173.271 463.063 173.089 463.267 172.925C463.745 172.553 464.308 172.305 464.905 172.204L477.299 169.767C477.744 169.68 478.171 169.52 478.564 169.295L484.345 165.927L514.356 148.459C515.19 147.974 515.826 147.208 516.148 146.299C516.471 145.389 516.461 144.395 516.119 143.492L510.39 128.389C510.039 127.465 510.036 126.445 510.382 125.519C510.728 124.593 511.4 123.824 512.271 123.357L521.762 118.272C522.304 117.981 522.905 117.817 523.52 117.792C524.135 117.767 524.748 117.882 525.312 118.128C525.876 118.374 526.377 118.745 526.777 119.213C527.177 119.68 527.465 120.233 527.621 120.828L535.859 152.2C536.113 153.162 536.005 154.184 535.557 155.072C535.109 155.96 534.352 156.654 533.428 157.023Z" fill="#FFB9B9"/>
<path d="M536.279 114.835C525.565 119.013 517.044 126.145 510.366 135.759L489.436 105.369L504.386 76.9717L536.279 114.835Z" fill="#FF002E"/>
<path d="M478.446 56.0734C468.636 60.153 458.349 59.9873 447.642 56.0734C450.757 50.7569 446.1 46.593 443.709 41.2261L483.689 40.0384C480.632 44.7007 476.121 50.2092 478.446 56.0734Z" fill="white"/>
<path d="M483.266 40.9255L482.802 40.4623L483.457 39.807L487.373 35.2388L487.871 35.6647L483.938 40.2513L483.266 40.9255Z" fill="white"/>
<path d="M440.97 38.1486L440.55 38.6522L444.483 41.9283L444.903 41.4247L440.97 38.1486Z" fill="white"/>
<path d="M484.396 44.7776L477.512 55.5878L478.065 55.9398L484.949 45.1295L484.396 44.7776Z" fill="white"/>
<path d="M441.692 44.7768L441.139 45.1286L448.021 55.9399L448.574 55.588L441.692 44.7768Z" fill="white"/>
<path d="M485.655 165V176.871L481.522 178.516C481.39 178.568 481.259 178.612 481.12 178.655L467.271 182.729C465.5 183.248 463.049 180.864 461.616 179.219C460.906 178.425 460.503 177.404 460.482 176.34C460.46 175.276 460.821 174.24 461.498 173.419C461.69 173.198 461.9 172.995 462.128 172.812C462.661 172.396 463.29 172.12 463.957 172.007L477.791 169.286C478.287 169.189 478.764 169.011 479.203 168.76L485.655 165Z" fill="white"/>
<path d="M491.645 122.66H489.277C489.277 89.1708 482.38 65.8328 475.658 65.8328L475.066 63.465C481.094 63.465 484.937 73.178 487.099 81.3266C490.031 92.3733 491.645 107.052 491.645 122.66Z" fill="#3F3D56"/>
<path d="M437.172 114.373H434.803C434.803 83.7019 441.748 64.6489 451.974 64.6489L451.382 67.0167C444.309 67.0167 437.172 81.6596 437.172 114.373Z" fill="#3F3D56"/>
<path d="M490.462 129.171C493.732 129.171 496.383 126.521 496.383 123.252C496.383 119.983 493.732 117.332 490.462 117.332C487.191 117.332 484.541 119.983 484.541 123.252C484.541 126.521 487.191 129.171 490.462 129.171Z" fill="#3F3D56"/>
<path d="M427.698 128.579H425.33C425.33 120.093 430.111 113.189 435.988 113.189V115.556C431.417 115.556 427.698 121.398 427.698 128.579Z" fill="#3F3D56"/>
<path d="M446.645 128.579H444.277C444.277 121.398 440.558 115.556 435.987 115.556V113.189C441.864 113.189 446.645 120.093 446.645 128.579Z" fill="#3F3D56"/>
<path d="M445.461 131.539C446.769 131.539 447.83 130.479 447.83 129.171C447.83 127.864 446.769 126.803 445.461 126.803C444.153 126.803 443.093 127.864 443.093 129.171C443.093 130.479 444.153 131.539 445.461 131.539Z" fill="#3F3D56"/>
<path d="M426.513 131.539C427.822 131.539 428.882 130.479 428.882 129.171C428.882 127.864 427.822 126.803 426.513 126.803C425.205 126.803 424.145 127.864 424.145 129.171C424.145 130.479 425.205 131.539 426.513 131.539Z" fill="#3F3D56"/>
<path d="M141.089 49.599L99.4934 56.6412C98.4658 56.8164 97.4098 56.6044 96.5296 56.0461C95.6494 55.4878 95.0076 54.6229 94.7285 53.6188C91.7233 42.7752 85.4401 28.6292 91.5404 21.528C91.8512 18.5405 93.3025 15.788 95.5923 13.8434C97.882 11.8988 100.834 10.912 103.833 11.0884C111.264 -0.540174 123.641 1.20578 132.006 8.46832C140.425 11.3725 143.599 16.532 142.489 23.5336C146.126 26.7163 148.033 30.3013 148.435 34.236C148.626 36.4257 148.347 38.6308 147.618 40.7042C146.888 42.7776 145.725 44.6717 144.205 46.26L141.089 49.599Z" fill="#2F2E41"/>
<path d="M134.623 82.3375L102.376 80.4412C105.537 73.1899 106.799 66.2072 105.538 59.5816H129.564C129.51 64.6687 132.042 73.4685 134.623 82.3375Z" fill="#9F616A"/>
<path d="M95.8067 380.221L94.4841 398.297C94.4242 399.116 94.54 399.937 94.8238 400.707C95.1075 401.477 95.5526 402.177 96.1293 402.761C96.7059 403.344 97.4007 403.798 98.1671 404.091C98.9335 404.385 99.7537 404.511 100.573 404.461L109.86 403.899C110.29 403.873 110.71 403.752 111.088 403.546C111.467 403.339 111.795 403.052 112.05 402.704C112.305 402.357 112.48 401.957 112.563 401.534C112.646 401.111 112.635 400.675 112.53 400.257L107.375 379.643L95.8067 380.221Z" fill="#E6E6E6"/>
<path d="M125.874 379.643L120.718 400.257C120.614 400.675 120.603 401.111 120.686 401.534C120.769 401.957 120.944 402.357 121.199 402.704C121.454 403.052 121.782 403.339 122.161 403.546C122.539 403.752 122.958 403.873 123.389 403.899L132.676 404.461C133.495 404.511 134.315 404.385 135.082 404.091C135.848 403.798 136.543 403.344 137.12 402.761C137.696 402.177 138.141 401.477 138.425 400.707C138.709 399.937 138.825 399.116 138.765 398.297L137.442 380.221L125.874 379.643Z" fill="#E6E6E6"/>
<path d="M138.041 382.731L125.509 381.473L113.031 248.135L108.316 381.044L96.0024 380.603L75.249 196.532H154.538L138.041 382.731Z" fill="#FF002E"/>
<path d="M118.185 67.2551C131.41 67.2551 142.131 56.5368 142.131 43.3152C142.131 30.0936 131.41 19.3753 118.185 19.3753C104.959 19.3753 94.2383 30.0936 94.2383 43.3152C94.2383 56.5368 104.959 67.2551 118.185 67.2551Z" fill="#9F616A"/>
<path d="M145.174 31.8788C135.455 30.1866 125.899 29.9543 116.61 32.1007C110.693 34.0372 103.587 33.8587 95.6846 32.2631V16.1191L138.348 16.8879L145.174 31.8788Z" fill="#2F2E41"/>
<path d="M134.121 62.5239C123.646 66.8802 112.661 66.7033 101.228 62.5239C104.554 56.8467 99.5814 52.4003 97.0283 46.6693L139.72 45.401C136.456 50.3796 131.638 56.2618 134.121 62.5239Z" fill="white"/>
<path d="M94.0888 43.4L93.6689 43.9036L97.868 47.4018L98.2878 46.8982L94.0888 43.4Z" fill="white"/>
<path d="M140.494 50.4731L133.144 62.0168L133.697 62.3687L141.047 50.825L140.494 50.4731Z" fill="white"/>
<path d="M94.8543 50.4726L94.3013 50.8244L101.65 62.3692L102.203 62.0174L94.8543 50.4726Z" fill="white"/>
<path d="M72.6589 152.501L54.3228 141.124L69.9602 95.3369C71.7043 90.6123 75.0449 86.6455 79.4044 84.1222L84.6722 81.0733L85.1302 127.263L72.6589 152.501Z" fill="#FF002E"/>
<path d="M151.916 174.739L149.203 151.509C149.058 139.248 151.145 127.394 156.12 116.471L158.649 82.3375L130.829 70.9596C130.744 71.5263 130.671 72.0927 130.59 72.6594L117.551 79.177L104.835 76.2878L104.906 72.2238L79.6144 83.6018C87.9782 122.475 83.4164 162.843 69.0337 210.525L102.352 219.633L102.629 203.639L132.324 201.519C132.63 206.708 132.875 211.805 133.018 216.789C149.774 222.956 150.349 222.854 165.616 214.024C159.536 201.245 154.722 187.947 151.916 174.739Z" fill="#FF002E"/>
<path d="M194.689 146.812L177.617 141.124L150.311 109.343L158.649 82.3378L196.585 135.435L194.689 146.812Z" fill="#FF002E"/>
<path d="M141.187 171.416C141.466 172.642 142.22 173.706 143.284 174.377C144.347 175.047 145.633 175.269 146.859 174.993L161.351 171.712L159.256 162.465L144.765 165.745C143.538 166.023 142.472 166.777 141.801 167.84C141.13 168.904 140.909 170.19 141.187 171.416V171.416Z" fill="#E6E6E6"/>
<path d="M154.223 160.719L162.443 175.889C176.268 172.035 188.25 159.882 199.747 145.548L196.586 135.435L176.985 140.491L154.223 160.719Z" fill="#FF002E"/>
<path d="M47.0518 113.132L62.8313 115.949L98.8989 167.219L79.7381 162.711L47.0518 113.132Z" fill="#E6E6E6"/>
<path d="M44.2526 112.505C44.0121 112.508 43.7771 112.576 43.572 112.702C43.3669 112.827 43.1993 113.006 43.0867 113.218C42.9742 113.431 42.9208 113.669 42.9322 113.91C42.9435 114.15 43.0192 114.382 43.1513 114.583L76.865 165.721C77.0531 166.007 77.3437 166.21 77.6769 166.288L93.3629 169.978C93.6274 170.04 93.9045 170.021 94.1576 169.922C94.4106 169.823 94.6277 169.649 94.7798 169.424C94.932 169.199 95.0122 168.933 95.0097 168.662C95.0071 168.39 94.9221 168.126 94.7658 167.903L57.7503 115.286C57.6499 115.143 57.5222 115.021 57.3746 114.927C57.2269 114.833 57.0622 114.769 56.8898 114.739L44.5054 112.527C44.422 112.512 44.3374 112.505 44.2526 112.505Z" fill="#3F3D56"/>
<path d="M65.2837 149.068L66.2207 158.503L81.0064 157.036C82.2579 156.912 83.4089 156.295 84.206 155.323C85.0031 154.35 85.3812 153.101 85.257 151.85C85.1328 150.599 84.5165 149.448 83.5437 148.651C82.5709 147.854 81.3212 147.476 80.0697 147.6L65.2837 149.068Z" fill="#E6E6E6"/>
<path d="M52.4263 147.975C52.4477 151.192 53.7402 154.27 56.0221 156.539C58.304 158.808 61.3903 160.083 64.6084 160.087H67.0397L68.8097 145.341L54.1545 140.066L52.4263 147.975Z" fill="#FF002E"/>
<path d="M138.552 47.0322L138.089 46.569L138.789 45.8692L142.971 40.9897L143.468 41.4156L139.269 46.3134L138.552 47.0322Z" fill="white"/>
<path d="M582 403.69H0V405H582V403.69Z" fill="#3F3D56"/>
<path d="M222.183 403.034H359.818V236.137C359.818 227.3 351.111 220.11 340.408 220.11H241.592C230.889 220.11 222.183 227.3 222.183 236.137V403.034Z" fill="#E6E6E6"/>
<path d="M232.669 396.133H349.331V254.668C349.331 247.177 341.951 241.083 332.879 241.083H249.121C240.049 241.083 232.669 247.177 232.669 254.668V396.133Z" fill="white"/>
<path d="M221.143 207.121C217.741 207.121 214.973 209.407 214.973 212.216V226.922C214.973 229.731 217.741 232.016 221.143 232.016H360.858C364.26 232.016 367.027 229.731 367.027 226.922V212.216C367.027 209.407 364.26 207.121 360.858 207.121H221.143Z" fill="#3F3D56"/>
<path d="M249.828 377.993C248.231 377.998 246.7 378.634 245.571 379.763C244.442 380.892 243.805 382.422 243.8 384.019C243.805 385.616 244.441 387.146 245.571 388.275C246.7 389.404 248.231 390.04 249.828 390.045H261.11V377.993H249.828Z" fill="#3F3D56"/>
<path d="M271.465 377.993H260.492V390.045H271.465C273.063 390.04 274.593 389.404 275.722 388.275C276.852 387.146 277.488 385.616 277.493 384.019C277.488 382.422 276.852 380.892 275.722 379.763C274.593 378.634 273.063 377.998 271.465 377.993Z" fill="#FF002E"/>
<path opacity="0.2" d="M275.399 379.469C276.349 380.559 276.873 381.955 276.875 383.401C276.87 384.998 276.234 386.528 275.104 387.657C273.975 388.786 272.444 389.422 270.847 389.427H260.492V390.045H271.465C273.063 390.04 274.593 389.404 275.722 388.275C276.852 387.146 277.488 385.616 277.493 384.019C277.492 383.155 277.304 382.301 276.942 381.516C276.581 380.73 276.054 380.032 275.399 379.469Z" fill="black"/>
<path d="M300.74 287.227C299.641 286.068 298.128 285.392 296.532 285.344C294.935 285.297 293.385 285.884 292.22 286.976C291.061 288.074 290.384 289.587 290.337 291.183C290.289 292.779 290.876 294.329 291.968 295.494L299.707 303.701L308.479 295.435L300.74 287.227Z" fill="#3F3D56"/>
<path d="M315.582 302.968L308.055 294.985L299.283 303.252L306.81 311.234C307.909 312.393 309.422 313.07 311.018 313.117C312.614 313.164 314.165 312.578 315.33 311.486C316.489 310.387 317.166 308.875 317.213 307.279C317.26 305.683 316.674 304.133 315.582 302.968Z" fill="#FF002E"/>
<path opacity="0.2" d="M317.205 306.841C317.064 308.28 316.407 309.619 315.356 310.612C314.191 311.704 312.64 312.29 311.044 312.243C309.447 312.196 307.934 311.519 306.835 310.361L299.733 302.828L299.283 303.252L306.81 311.234C307.909 312.393 309.421 313.07 311.018 313.117C312.614 313.164 314.165 312.578 315.33 311.486C315.958 310.892 316.451 310.17 316.775 309.368C317.098 308.566 317.245 307.705 317.205 306.841Z" fill="black"/>
<path d="M268.626 306.229C267.527 305.07 266.014 304.393 264.417 304.346C262.821 304.299 261.27 304.885 260.105 305.977C258.946 307.076 258.269 308.588 258.222 310.184C258.175 311.781 258.761 313.33 259.853 314.495L267.592 322.703L276.364 314.436L268.626 306.229Z" fill="#3F3D56"/>
<path d="M283.467 321.969L275.94 313.987L267.168 322.253L274.695 330.236C275.794 331.395 277.307 332.071 278.903 332.119C280.5 332.166 282.05 331.579 283.215 330.487C284.374 329.389 285.051 327.876 285.099 326.28C285.146 324.684 284.559 323.134 283.467 321.969Z" fill="#FF002E"/>
<path opacity="0.2" d="M285.091 325.843C284.95 327.282 284.293 328.621 283.241 329.614C282.076 330.706 280.526 331.292 278.929 331.245C277.333 331.198 275.82 330.521 274.721 329.362L267.618 321.829L267.168 322.253L274.695 330.236C275.794 331.395 277.307 332.071 278.903 332.119C280.5 332.166 282.05 331.579 283.215 330.487C283.844 329.894 284.336 329.171 284.66 328.37C284.983 327.568 285.13 326.706 285.091 325.843Z" fill="black"/>
<path d="M300.74 323.92C299.641 322.761 298.128 322.084 296.532 322.037C294.935 321.99 293.385 322.577 292.22 323.668C291.061 324.767 290.384 326.28 290.337 327.876C290.289 329.472 290.876 331.021 291.968 332.187L299.707 340.394L308.479 332.127L300.74 323.92Z" fill="#3F3D56"/>
<path d="M315.582 339.66L308.055 331.678L299.283 339.944L306.81 347.927C307.909 349.086 309.422 349.763 311.018 349.81C312.614 349.857 314.165 349.27 315.33 348.179C316.489 347.08 317.166 345.567 317.213 343.971C317.26 342.375 316.674 340.825 315.582 339.66Z" fill="#FF002E"/>
<path opacity="0.2" d="M317.205 343.534C317.064 344.973 316.407 346.312 315.356 347.305C314.191 348.397 312.64 348.983 311.044 348.936C309.447 348.889 307.934 348.212 306.835 347.053L299.733 339.521L299.283 339.944L306.81 347.927C307.909 349.086 309.421 349.763 311.018 349.81C312.614 349.857 314.165 349.27 315.33 348.179C315.958 347.585 316.451 346.862 316.775 346.061C317.098 345.259 317.245 344.397 317.205 343.534Z" fill="black"/>
<path d="M320.332 361.574C321.477 360.461 322.136 358.941 322.164 357.344C322.191 355.748 321.586 354.205 320.48 353.053C319.367 351.908 317.846 351.25 316.249 351.222C314.652 351.194 313.109 351.799 311.957 352.905L303.842 360.741L312.217 369.41L320.332 361.574Z" fill="#3F3D56"/>
<path d="M304.769 376.602L312.661 368.98L304.287 360.312L296.394 367.933C295.248 369.046 294.59 370.566 294.562 372.163C294.534 373.759 295.14 375.302 296.246 376.454C297.359 377.599 298.88 378.257 300.477 378.285C302.074 378.313 303.617 377.708 304.769 376.602Z" fill="#FF002E"/>
<path opacity="0.2" d="M300.914 378.272C299.473 378.148 298.126 377.508 297.12 376.469C296.014 375.317 295.408 373.775 295.436 372.178C295.464 370.582 296.122 369.061 297.268 367.948L304.716 360.756L304.287 360.312L296.394 367.933C295.248 369.046 294.59 370.566 294.562 372.163C294.534 373.759 295.14 375.302 296.246 376.454C296.848 377.075 297.576 377.558 298.382 377.872C299.187 378.186 300.051 378.322 300.914 378.272Z" fill="black"/>
<path d="M277.076 342.572C278.221 341.46 278.88 339.939 278.907 338.342C278.935 336.746 278.33 335.203 277.224 334.052C276.111 332.906 274.59 332.248 272.993 332.22C271.396 332.193 269.853 332.798 268.701 333.904L260.585 341.74L268.96 350.408L277.076 342.572Z" fill="#3F3D56"/>
<path d="M261.512 357.6L269.405 349.979L261.03 341.31L253.137 348.932C251.991 350.044 251.333 351.565 251.305 353.161C251.277 354.758 251.883 356.3 252.989 357.452C254.102 358.597 255.623 359.256 257.22 359.284C258.817 359.311 260.36 358.706 261.512 357.6Z" fill="#FF002E"/>
<path opacity="0.2" d="M257.657 359.27C256.216 359.147 254.869 358.506 253.863 357.467C252.757 356.316 252.152 354.773 252.179 353.177C252.207 351.58 252.866 350.059 254.011 348.947L261.459 341.755L261.03 341.31L253.137 348.932C251.991 350.044 251.333 351.565 251.305 353.161C251.277 354.758 251.883 356.3 252.989 357.452C253.591 358.073 254.319 358.557 255.125 358.87C255.93 359.184 256.794 359.321 257.657 359.27Z" fill="black"/>
<path d="M338.683 319.639C339.829 318.527 340.488 317.006 340.515 315.41C340.543 313.813 339.938 312.27 338.831 311.119C337.718 309.973 336.197 309.315 334.6 309.287C333.004 309.26 331.461 309.865 330.309 310.971L322.193 318.807L330.568 327.475L338.683 319.639Z" fill="#3F3D56"/>
<path d="M323.12 334.667L331.013 327.046L322.638 318.377L314.745 325.999C313.599 327.111 312.941 328.632 312.913 330.228C312.885 331.825 313.491 333.367 314.597 334.519C315.71 335.664 317.231 336.323 318.828 336.351C320.425 336.378 321.968 335.773 323.12 334.667Z" fill="#FF002E"/>
<path opacity="0.2" d="M319.265 336.337C317.824 336.214 316.477 335.573 315.471 334.534C314.365 333.383 313.759 331.84 313.787 330.244C313.815 328.647 314.473 327.126 315.619 326.014L323.067 318.822L322.638 318.377L314.745 325.999C313.599 327.111 312.941 328.632 312.913 330.228C312.885 331.825 313.491 333.367 314.597 334.519C315.199 335.14 315.927 335.624 316.733 335.937C317.538 336.251 318.402 336.388 319.265 336.337Z" fill="black"/>
<path d="M324.99 367.165C323.891 366.006 322.378 365.329 320.782 365.282C319.185 365.235 317.635 365.822 316.47 366.913C315.311 368.012 314.634 369.525 314.587 371.121C314.539 372.717 315.126 374.267 316.218 375.432L323.957 383.639L332.729 375.372L324.99 367.165Z" fill="#3F3D56"/>
<path d="M339.832 382.905L332.305 374.923L323.533 383.189L331.06 391.172C332.159 392.331 333.672 393.008 335.268 393.055C336.865 393.102 338.415 392.515 339.581 391.424C340.74 390.325 341.417 388.812 341.464 387.216C341.511 385.62 340.924 384.07 339.832 382.905Z" fill="#FF002E"/>
<path opacity="0.2" d="M341.456 386.779C341.315 388.218 340.658 389.557 339.606 390.55C338.441 391.642 336.891 392.228 335.294 392.181C333.698 392.134 332.185 391.457 331.086 390.298L323.983 382.766L323.533 383.189L331.06 391.172C332.159 392.331 333.672 393.008 335.268 393.055C336.865 393.102 338.415 392.515 339.581 391.424C340.209 390.83 340.701 390.107 341.025 389.306C341.349 388.504 341.496 387.642 341.456 386.779Z" fill="black"/>
<path d="M282.389 366.51C281.29 365.351 279.777 364.674 278.18 364.627C276.584 364.58 275.034 365.166 273.868 366.258C272.709 367.357 272.032 368.869 271.985 370.465C271.938 372.061 272.525 373.611 273.617 374.776L281.356 382.984L290.128 374.717L282.389 366.51Z" fill="#3F3D56"/>
<path d="M297.231 382.25L289.704 374.267L280.932 382.534L288.459 390.517C289.557 391.676 291.07 392.352 292.667 392.399C294.263 392.447 295.814 391.86 296.979 390.768C298.138 389.67 298.815 388.157 298.862 386.561C298.909 384.965 298.323 383.415 297.231 382.25Z" fill="#FF002E"/>
<path opacity="0.2" d="M298.854 386.124C298.713 387.563 298.056 388.902 297.005 389.895C295.839 390.987 294.289 391.573 292.693 391.526C291.096 391.479 289.583 390.802 288.484 389.643L281.382 382.11L280.932 382.534L288.459 390.517C289.557 391.676 291.07 392.352 292.667 392.399C294.263 392.447 295.814 391.86 296.979 390.768C297.607 390.174 298.1 389.452 298.424 388.651C298.747 387.849 298.894 386.987 298.854 386.124Z" fill="black"/>
<path d="M294.381 344.891C294.381 346.895 293.689 348.837 292.422 350.389C291.155 351.941 289.39 353.007 287.426 353.408C286.279 353.64 285.097 353.64 283.949 353.408C281.986 353.007 280.222 351.94 278.954 350.388C277.687 348.837 276.995 346.895 276.995 344.891C276.995 342.888 277.687 340.946 278.954 339.394C280.222 337.843 281.986 336.776 283.949 336.375C285.097 336.143 286.279 336.143 287.426 336.375C289.39 336.776 291.155 337.842 292.422 339.394C293.689 340.946 294.381 342.888 294.381 344.891Z" fill="#FF002E"/>
<path opacity="0.2" d="M287.426 336.375V353.408C286.279 353.64 285.097 353.64 283.949 353.408V336.375C285.097 336.143 286.279 336.143 287.426 336.375Z" fill="black"/>
<path d="M298.313 310.164C298.313 312.168 297.621 314.11 296.354 315.662C295.087 317.214 293.322 318.28 291.358 318.681C290.211 318.913 289.029 318.913 287.881 318.681C285.918 318.28 284.154 317.213 282.887 315.661C281.619 314.109 280.927 312.168 280.927 310.164C280.927 308.161 281.619 306.219 282.887 304.667C284.154 303.116 285.918 302.049 287.881 301.648C289.029 301.416 290.211 301.416 291.358 301.648C293.322 302.049 295.087 303.115 296.354 304.667C297.621 306.219 298.313 308.161 298.313 310.164Z" fill="#FF002E"/>
<path opacity="0.2" d="M291.359 301.648V318.681C290.211 318.913 289.029 318.913 287.882 318.681V301.648C289.029 301.416 290.211 301.416 291.359 301.648Z" fill="black"/>
<path d="M298.313 359.962C298.313 361.965 297.621 363.907 296.354 365.459C295.087 367.011 293.322 368.078 291.358 368.478C290.211 368.71 289.029 368.71 287.881 368.478C285.918 368.077 284.154 367.011 282.887 365.459C281.619 363.907 280.927 361.965 280.927 359.962C280.927 357.958 281.619 356.017 282.887 354.465C284.154 352.913 285.918 351.846 287.881 351.445C289.029 351.213 290.211 351.213 291.358 351.445C293.322 351.846 295.087 352.912 296.354 354.464C297.621 356.016 298.313 357.958 298.313 359.962Z" fill="#FF002E"/>
<path opacity="0.2" d="M291.359 351.445V368.478C290.211 368.71 289.029 368.71 287.882 368.478V351.445C289.029 351.213 290.211 351.213 291.359 351.445Z" fill="black"/>
<path d="M319.941 384.205C319.942 386.209 319.25 388.151 317.982 389.703C316.715 391.254 314.95 392.321 312.987 392.722C311.839 392.953 310.657 392.953 309.51 392.722C307.547 392.321 305.782 391.254 304.515 389.702C303.248 388.15 302.556 386.208 302.556 384.205C302.556 382.202 303.248 380.26 304.515 378.708C305.782 377.156 307.547 376.09 309.51 375.689C310.657 375.457 311.839 375.457 312.987 375.689C314.95 376.089 316.715 377.156 317.982 378.708C319.25 380.26 319.942 382.202 319.941 384.205Z" fill="#FF002E"/>
<path opacity="0.2" d="M312.987 375.689V392.722C311.839 392.953 310.657 392.953 309.51 392.722V375.689C310.657 375.457 311.839 375.457 312.987 375.689Z" fill="black"/>
<path d="M339.047 339.6C340.49 340.99 341.409 342.836 341.647 344.825C341.885 346.814 341.429 348.825 340.355 350.516C339.725 351.503 338.905 352.354 337.942 353.019C336.291 354.154 334.298 354.683 332.301 354.519C330.304 354.354 328.425 353.504 326.982 352.114C325.539 350.724 324.621 348.878 324.383 346.889C324.145 344.9 324.601 342.89 325.675 341.198C326.304 340.211 327.124 339.361 328.088 338.695C329.739 337.56 331.732 337.03 333.729 337.195C335.726 337.36 337.605 338.209 339.047 339.6Z" fill="#FF002E"/>
<path opacity="0.2" d="M328.088 338.695L340.355 350.516C339.726 351.503 338.905 352.354 337.942 353.019L325.675 341.198C326.304 340.212 327.125 339.361 328.088 338.695Z" fill="black"/>
<path d="M341.669 358.602C343.113 359.992 344.031 361.837 344.269 363.827C344.507 365.816 344.051 367.826 342.977 369.518C342.348 370.504 341.527 371.355 340.564 372.02C338.913 373.155 336.92 373.685 334.923 373.52C332.926 373.355 331.047 372.506 329.604 371.116C328.161 369.726 327.243 367.88 327.005 365.891C326.767 363.902 327.223 361.891 328.297 360.2C328.926 359.213 329.747 358.362 330.71 357.697C332.361 356.562 334.354 356.032 336.351 356.197C338.348 356.361 340.227 357.211 341.669 358.602Z" fill="#FF002E"/>
<path opacity="0.2" d="M330.709 357.697L342.977 369.518C342.347 370.504 341.527 371.355 340.564 372.02L328.296 360.2C328.926 359.213 329.746 358.362 330.709 357.697Z" fill="black"/>
<path d="M263.676 363.188C265.119 364.578 266.037 366.424 266.276 368.413C266.514 370.402 266.057 372.413 264.983 374.104C264.354 375.091 263.533 375.942 262.57 376.607C260.919 377.742 258.926 378.272 256.929 378.107C254.932 377.942 253.053 377.093 251.611 375.702C250.168 374.312 249.25 372.466 249.011 370.477C248.773 368.488 249.229 366.478 250.303 364.786C250.932 363.8 251.753 362.949 252.716 362.284C254.367 361.148 256.36 360.618 258.357 360.783C260.354 360.948 262.233 361.798 263.676 363.188Z" fill="#FF002E"/>
<path opacity="0.2" d="M252.716 362.284L264.983 374.104C264.354 375.091 263.534 375.942 262.57 376.607L250.303 364.786C250.933 363.8 251.753 362.949 252.716 362.284Z" fill="black"/>
<path opacity="0.2" d="M235.618 207.121H232.341V231.365H235.618V207.121Z" fill="black"/>
<path opacity="0.2" d="M254.625 207.121H251.348V231.365H254.625V207.121Z" fill="black"/>
<path opacity="0.2" d="M273.632 207.121H270.354V231.365H273.632V207.121Z" fill="black"/>
<path opacity="0.2" d="M292.638 207.121H289.361V231.365H292.638V207.121Z" fill="black"/>
<path opacity="0.2" d="M311.645 207.121H308.368V231.365H311.645V207.121Z" fill="black"/>
<path opacity="0.2" d="M330.652 207.121H327.375V231.365H330.652V207.121Z" fill="black"/>
<path opacity="0.2" d="M349.659 207.121H346.382V231.365H349.659V207.121Z" fill="black"/>
</svg>
